999
dxfrw 0.6.3
  0
SECTION
  2
HEADER
  9
$ACADVER
  1
AC1021
  9
$DWGCODEPAGE
  3
ANSI_1252
  9
$INSBASE
 10
0
 20
0
 30
0
  9
$EXTMIN
 10
50.00000000000005
 20
40
 30
0
  9
$EXTMAX
 10
1881
 20
807
 30
0
  9
$LIMMIN
 10
0
 20
0
  9
$LIMMAX
 10
420
 20
297
  9
$ORTHOMODE
 70
    0
  9
$REGENMODE
 70
    1
  9
$FILLMODE
 70
    1
  9
$QTEXTMODE
 70
    0
  9
$MIRRTEXT
 70
    0
  9
$LTSCALE
 40
1
  9
$ATTMODE
 70
    0
  9
$TEXTSIZE
 40
2.5
  9
$TRACEWID
 40
15.68
  9
$TEXTSTYLE
  7
STANDARD
  9
$CLAYER
  8
Border
  9
$CELTYPE
  6
BYLAYER
  9
$CECOLOR
 62
  256
  9
$CELTSCALE
 40
1
  9
$DISPSILH
 70
    0
  9
$DIMSCALE
 40
40
  9
$DIMASZ
 40
1
  9
$DIMEXO
 40
1
  9
$DIMDLI
 40
3.75
  9
$DIMRND
 40
0
  9
$DIMDLE
 40
0
  9
$DIMEXE
 40
1
  9
$DIMTP
 40
0
  9
$DIMTM
 40
0
  9
$DIMTXT
 40
1
  9
$DIMCEN
 40
2.5
  9
$DIMTSZ
 40
1
  9
$DIMTOL
 70
    0
  9
$DIMLIM
 70
    0
  9
$DIMTIH
 70
    0
  9
$DIMTOH
 70
    0
  9
$DIMSE1
 70
    0
  9
$DIMSE2
 70
    0
  9
$DIMTAD
 70
    1
  9
$DIMZIN
 70
    1
  9
$DIMBLK
  1

  9
$DIMASO
 70
    1
  9
$DIMSHO
 70
    1
  9
$DIMPOST
  1

  9
$DIMAPOST
  1

  9
$DIMALT
 70
    0
  9
$DIMALTD
 70
    3
  9
$DIMALTF
 40
0.03937
  9
$DIMLFAC
 40
1
  9
$DIMTOFL
 70
    1
  9
$DIMTVP
 40
0
  9
$DIMTIX
 70
    0
  9
$DIMSOXD
 70
    0
  9
$DIMSAH
 70
    0
  9
$DIMBLK1
  1

  9
$DIMBLK2
  1

  9
$DIMSTYLE
  2
STANDARD
  9
$DIMCLRD
 70
    0
  9
$DIMCLRE
 70
    0
  9
$DIMCLRT
 70
    0
  9
$DIMTFAC
 40
1
  9
$DIMGAP
 40
1
  9
$DIMJUST
 70
    0
  9
$DIMSD1
 70
    0
  9
$DIMSD2
 70
    0
  9
$DIMTOLJ
 70
    0
  9
$DIMTZIN
 70
    8
  9
$DIMALTZ
 70
    0
  9
$DIMALTTZ
 70
    0
  9
$DIMUPT
 70
    0
  9
$DIMDEC
 70
    0
  9
$DIMTDEC
 70
    2
  9
$DIMALTU
 70
    2
  9
$DIMALTTD
 70
    3
  9
$DIMTXSTY
  7
standard
  9
$DIMAUNIT
 70
    0
  9
$DIMADEC
 70
    0
  9
$DIMALTRND
 40
0
  9
$DIMAZIN
 70
    0
  9
$DIMDSEP
 70
    0
  9
$DIMATFIT
 70
    3
  9
$DIMFRAC
 70
    0
  9
$DIMLDRBLK
  1
STANDARD
  9
$DIMLUNIT
 70
    2
  9
$DIMLWD
 70
   -2
  9
$DIMLWE
 70
   -2
  9
$DIMTMOVE
 70
    0
  9
$DIMFXL
 40
1
  9
$DIMFXLON
 70
    0
  9
$DIMJOGANG
 40
0.7854
  9
$DIMTFILL
 70
    0
  9
$DIMTFILLCLR
 70
    0
  9
$DIMARCSYM
 70
    0
  9
$DIMLTYPE
  6

  9
$DIMLTEX1
  6

  9
$DIMLTEX2
  6

  9
$LUNITS
 70
    2
  9
$LUPREC
 70
    4
  9
$SKETCHINC
 40
1
  9
$FILLETRAD
 40
0
  9
$AUNITS
 70
    0
  9
$AUPREC
 70
    2
  9
$MENU
  1
.
  9
$ELEVATION
 40
0
  9
$PELEVATION
 40
0
  9
$THICKNESS
 40
0
  9
$LIMCHECK
 70
    0
  9
$CHAMFERA
 40
0
  9
$CHAMFERB
 40
0
  9
$CHAMFERC
 40
0
  9
$CHAMFERD
 40
0
  9
$SKPOLY
 70
    0
  9
$USRTIMER
 70
    1
  9
$ANGBASE
 50
0
  9
$ANGDIR
 70
    0
  9
$PDMODE
 70
   34
  9
$PDSIZE
 40
0
  9
$PLINEWID
 40
0
  9
$SPLFRAME
 70
    0
  9
$SPLINETYPE
 70
    2
  9
$SPLINESEGS
 70
    8
  9
$HANDSEED
  5
20000
  9
$SURFTAB1
 70
    6
  9
$SURFTAB2
 70
    6
  9
$SURFTYPE
 70
    6
  9
$SURFU
 70
    6
  9
$SURFV
 70
    6
  9
$UCSBASE
  2

  9
$UCSNAME
  2

  9
$UCSORG
 10
0
 20
0
 30
0
  9
$UCSXDIR
 10
1
 20
0
 30
0
  9
$UCSYDIR
 10
0
 20
1
 30
0
  9
$UCSORTHOREF
  2

  9
$UCSORTHOVIEW
 70
    0
  9
$UCSORGTOP
 10
0
 20
0
 30
0
  9
$UCSORGBOTTOM
 10
0
 20
0
 30
0
  9
$UCSORGLEFT
 10
0
 20
0
 30
0
  9
$UCSORGRIGHT
 10
0
 20
0
 30
0
  9
$UCSORGFRONT
 10
0
 20
0
 30
0
  9
$UCSORGBACK
 10
0
 20
0
 30
0
  9
$PUCSBASE
  2

  9
$PUCSNAME
  2

  9
$PUCSORG
 10
0
 20
0
 30
0
  9
$PUCSXDIR
 10
1
 20
0
 30
0
  9
$PUCSYDIR
 10
0
 20
1
 30
0
  9
$PUCSORTHOREF
  2

  9
$PUCSORTHOVIEW
 70
    0
  9
$PUCSORGTOP
 10
0
 20
0
 30
0
  9
$PUCSORGBOTTOM
 10
0
 20
0
 30
0
  9
$PUCSORGLEFT
 10
0
 20
0
 30
0
  9
$PUCSORGRIGHT
 10
0
 20
0
 30
0
  9
$PUCSORGFRONT
 10
0
 20
0
 30
0
  9
$PUCSORGBACK
 10
0
 20
0
 30
0
  9
$USERI1
 70
    0
  9
$USERI2
 70
    0
  9
$USERI3
 70
    0
  9
$USERI4
 70
    0
  9
$USERI5
 70
    0
  9
$USERR1
 40
0
  9
$USERR2
 40
0
  9
$USERR3
 40
0
  9
$USERR4
 40
0
  9
$USERR5
 40
0
  9
$WORLDVIEW
 70
    1
  9
$SHADEDGE
 70
    3
  9
$SHADEDIF
 70
   70
  9
$TILEMODE
 70
    1
  9
$MAXACTVP
 70
   64
  9
$PINSBASE
 10
39.06781099327382
 20
69.93825871332484
 30
0
  9
$PLIMCHECK
 70
    0
  9
$PEXTMIN
 10
0
 20
0
 30
0
  9
$PEXTMAX
 10
0
 20
0
 30
0
  9
$GRIDMODE
 70
    1
  9
$SNAPSTYLE
 70
    0
  9
$GRIDUNIT
 10
0
 20
0
  9
$PLIMMIN
 10
0
 20
0
  9
$PLIMMAX
 10
297
 20
210
  9
$UNITMODE
 70
    0
  9
$VISRETAIN
 70
    1
  9
$PLINEGEN
 70
    0
  9
$PSLTSCALE
 70
    1
  9
$TREEDEPTH
 70
 3020
  9
$CMLSTYLE
  2
Standard
  9
$CMLJUST
 70
    0
  9
$CMLSCALE
 40
20
  9
$PROXYGRAPHICS
 70
    1
  9
$MEASUREMENT
 70
    1
  9
$CELWEIGHT
370
   -1
  9
$ENDCAPS
280
    0
  9
$JOINSTYLE
280
    0
  9
$LWDISPLAY
290
    0
  9
$INSUNITS
 70
    0
  9
$HYPERLINKBASE
  1

  9
$STYLESHEET
  1

  9
$XEDIT
290
    1
  9
$CEPSNTYPE
380
    0
  9
$PSTYLEMODE
290
    1
  9
$EXTNAMES
290
    1
  9
$PSVPSCALE
 40
0.109567907998019
  9
$OLESTARTUP
290
    0
  9
$SORTENTS
280
  127
  9
$INDEXCTL
280
    0
  9
$HIDETEXT
280
    1
  9
$XCLIPFRAME
290
    0
  9
$HALOGAP
280
    0
  9
$OBSCOLOR
 70
  257
  9
$OBSLTYPE
280
    0
  9
$INTERSECTIONDISPLAY
280
    0
  9
$INTERSECTIONCOLOR
 70
  257
  9
$DIMASSOC
280
    1
  9
$PROJECTNAME
  1

  9
$CAMERADISPLAY
290
    0
  9
$LENSLENGTH
 40
50
  9
$CAMERAHEIGHT
 40
0
  9
$STEPSPERSEC
 40
2
  9
$STEPSIZE
 40
50
  9
$3DDWFPREC
 40
2
  9
$PSOLWIDTH
 40
5
  9
$PSOLHEIGHT
 40
80
  9
$LOFTANG1
 40
1.570796326794897
  9
$LOFTANG2
 40
1.570796326794897
  9
$LOFTMAG1
 40
0
  9
$LOFTMAG2
 40
0
  9
$LOFTPARAM
 70
    7
  9
$LOFTNORMALS
280
    1
  9
$LATITUDE
 40
1
  9
$LONGITUDE
 40
1
  9
$NORTHDIRECTION
 40
0
  9
$TIMEZONE
 70
-8000
  9
$LIGHTGLYPHDISPLAY
280
    1
  9
$TILEMODELIGHTSYNCH
280
    1
  9
$SOLIDHIST
280
    1
  9
$SHOWHIST
280
    1
  9
$DWFFRAME
280
    2
  9
$DGNFRAME
280
    0
  9
$REALWORLDSCALE
290
    1
  9
$INTERFERECOLOR
 62
    1
  9
$CSHADOW
280
    0
  9
$SHADOWPLANELOCATION
 40
0
  0
ENDSEC
  0
SECTION
  2
CLASSES
  0
ENDSEC
  0
SECTION
  2
TABLES
  0
TABLE
  2
VPORT
  5
8
330
0
100
AcDbSymbolTable
 70
    1
  0
VPORT
  5
31
330
2
100
AcDbSymbolTableRecord
100
AcDbViewportTableRecord
  2
*ACTIVE
 70
    0
 10
0
 20
0
 11
1
 21
1
 12
1689.945298188221
 22
829.9222456751316
 13
0
 23
0
 14
10
 24
10
 15
10
 25
10
 16
0
 26
0
 36
1
 17
0
 27
0
 37
0
 40
2430.998495103667
 41
1.889150943396226
 42
50
 43
0
 44
0
 50
0
 51
0
 71
    0
 72
  100
 73
    1
 74
    3
 75
    0
 76
    1
 77
    0
 78
    0
281
    0
 65
    1
110
0
120
0
130
0
111
1
121
0
131
0
112
0
122
1
132
0
 79
    0
146
0
348
10020
 60
    7
 61
    5
292
1
282
    1
141
0
142
0
 63
  250
421
3358443
  0
ENDTAB
  0
TABLE
  2
LTYPE
  5
5
330
0
100
AcDbSymbolTable
 70
    4
  0
LTYPE
  5
14
330
5
100
AcDbSymbolTableRecord
100
AcDbLinetypeTableRecord
  2
ByBlock
 70
    0
  3

 72
   65
 73
    0
 40
0
  0
LTYPE
  5
15
330
5
100
AcDbSymbolTableRecord
100
AcDbLinetypeTableRecord
  2
ByLayer
 70
    0
  3

 72
   65
 73
    0
 40
0
  0
LTYPE
  5
16
330
5
100
AcDbSymbolTableRecord
100
AcDbLinetypeTableRecord
  2
Continuous
 70
    0
  3
Solid line
 72
   65
 73
    0
 40
0
  0
LTYPE
  5
32
330
5
100
AcDbSymbolTableRecord
100
AcDbLinetypeTableRecord
  2
DOT
 70
    0
  3
Dot . . . . . . . . . . . . . . . . . . . . . .
 72
   65
 73
    2
 40
6.35
 49
0
 74
    0
 49
-6.35
 74
    0
  0
LTYPE
  5
33
330
5
100
AcDbSymbolTableRecord
100
AcDbLinetypeTableRecord
  2
DOTTINY
 70
    0
  3
Dot (.15x) .....................................
 72
   65
 73
    2
 40
0.9525
 49
0
 74
    0
 49
-0.9525
 74
    0
  0
LTYPE
  5
34
330
5
100
AcDbSymbolTableRecord
100
AcDbLinetypeTableRecord
  2
DOT2
 70
    0
  3
Dot (.5x) .....................................
 72
   65
 73
    2
 40
3.175
 49
0
 74
    0
 49
-3.175
 74
    0
  0
LTYPE
  5
35
330
5
100
AcDbSymbolTableRecord
100
AcDbLinetypeTableRecord
  2
DOTX2
 70
    0
  3
Dot (2x) .  .  .  .  .  .  .  .  .  .  .  .  .
 72
   65
 73
    2
 40
12.7
 49
0
 74
    0
 49
-12.7
 74
    0
  0
LTYPE
  5
36
330
5
100
AcDbSymbolTableRecord
100
AcDbLinetypeTableRecord
  2
DASHED
 70
    0
  3
Dashed _ _ _ _ _ _ _ _ _ _ _ _ _ _ _ _ _
 72
   65
 73
    2
 40
19.05
 49
12.7
 74
    0
 49
-6.35
 74
    0
  0
LTYPE
  5
37
330
5
100
AcDbSymbolTableRecord
100
AcDbLinetypeTableRecord
  2
DASHEDTINY
 70
    0
  3
Dashed (.15x) _ _ _ _ _ _ _ _ _ _ _ _ _ _ _ _ _
 72
   65
 73
    2
 40
2.8575
 49
1.905
 74
    0
 49
-0.9525
 74
    0
  0
LTYPE
  5
38
330
5
100
AcDbSymbolTableRecord
100
AcDbLinetypeTableRecord
  2
DASHED2
 70
    0
  3
Dashed (.5x) _ _ _ _ _ _ _ _ _ _ _ _ _ _ _ _ _
 72
   65
 73
    2
 40
9.524999999999999
 49
6.35
 74
    0
 49
-3.175
 74
    0
  0
LTYPE
  5
39
330
5
100
AcDbSymbolTableRecord
100
AcDbLinetypeTableRecord
  2
DASHEDX2
 70
    0
  3
Dashed (2x) ____  ____  ____  ____  ____  ___
 72
   65
 73
    2
 40
38.09999999999999
 49
25.4
 74
    0
 49
-12.7
 74
    0
  0
LTYPE
  5
3A
330
5
100
AcDbSymbolTableRecord
100
AcDbLinetypeTableRecord
  2
DASHDOT
 70
    0
  3
Dash dot __ . __ . __ . __ . __ . __ . __ . __
 72
   65
 73
    4
 40
25.4
 49
12.7
 74
    0
 49
-6.35
 74
    0
 49
0
 74
    0
 49
-6.35
 74
    0
  0
LTYPE
  5
3B
330
5
100
AcDbSymbolTableRecord
100
AcDbLinetypeTableRecord
  2
DASHDOTTINY
 70
    0
  3
Dash dot (.15x) _._._._._._._._._._._._._._._.
 72
   65
 73
    4
 40
3.81
 49
1.905
 74
    0
 49
-0.9525
 74
    0
 49
0
 74
    0
 49
-0.9525
 74
    0
  0
LTYPE
  5
3C
330
5
100
AcDbSymbolTableRecord
100
AcDbLinetypeTableRecord
  2
DASHDOT2
 70
    0
  3
Dash dot (.5x) _._._._._._._._._._._._._._._.
 72
   65
 73
    4
 40
12.7
 49
6.35
 74
    0
 49
-3.175
 74
    0
 49
0
 74
    0
 49
-3.175
 74
    0
  0
LTYPE
  5
3D
330
5
100
AcDbSymbolTableRecord
100
AcDbLinetypeTableRecord
  2
DASHDOTX2
 70
    0
  3
Dash dot (2x) ____  .  ____  .  ____  .  ___
 72
   65
 73
    4
 40
50.8
 49
25.4
 74
    0
 49
-12.7
 74
    0
 49
0
 74
    0
 49
-12.7
 74
    0
  0
LTYPE
  5
3E
330
5
100
AcDbSymbolTableRecord
100
AcDbLinetypeTableRecord
  2
DIVIDE
 70
    0
  3
Divide ____ . . ____ . . ____ . . ____ . . ____
 72
   65
 73
    6
 40
31.75
 49
12.7
 74
    0
 49
-6.35
 74
    0
 49
0
 74
    0
 49
-6.35
 74
    0
 49
0
 74
    0
 49
-6.35
 74
    0
  0
LTYPE
  5
3F
330
5
100
AcDbSymbolTableRecord
100
AcDbLinetypeTableRecord
  2
DIVIDETINY
 70
    0
  3
Divide (.15x) __..__..__..__..__..__..__..__.._
 72
   65
 73
    6
 40
4.7625
 49
1.905
 74
    0
 49
-0.9525
 74
    0
 49
0
 74
    0
 49
-0.9525
 74
    0
 49
0
 74
    0
 49
-0.9525
 74
    0
  0
LTYPE
  5
40
330
5
100
AcDbSymbolTableRecord
100
AcDbLinetypeTableRecord
  2
DIVIDE2
 70
    0
  3
Divide (.5x) __..__..__..__..__..__..__..__.._
 72
   65
 73
    6
 40
15.875
 49
6.35
 74
    0
 49
-3.175
 74
    0
 49
0
 74
    0
 49
-3.175
 74
    0
 49
0
 74
    0
 49
-3.175
 74
    0
  0
LTYPE
  5
41
330
5
100
AcDbSymbolTableRecord
100
AcDbLinetypeTableRecord
  2
DIVIDEX2
 70
    0
  3
Divide (2x) ________  .  .  ________  .  .  _
 72
   65
 73
    6
 40
63.5
 49
25.4
 74
    0
 49
-12.7
 74
    0
 49
0
 74
    0
 49
-12.7
 74
    0
 49
0
 74
    0
 49
-12.7
 74
    0
  0
LTYPE
  5
42
330
5
100
AcDbSymbolTableRecord
100
AcDbLinetypeTableRecord
  2
BORDER
 70
    0
  3
Border __ __ . __ __ . __ __ . __ __ . __ __ .
 72
   65
 73
    6
 40
44.45
 49
12.7
 74
    0
 49
-6.35
 74
    0
 49
12.7
 74
    0
 49
-6.35
 74
    0
 49
0
 74
    0
 49
-6.35
 74
    0
  0
LTYPE
  5
43
330
5
100
AcDbSymbolTableRecord
100
AcDbLinetypeTableRecord
  2
BORDERTINY
 70
    0
  3
Border (.15x) __.__.__.__.__.__.__.__.__.__.__.
 72
   65
 73
    6
 40
6.6675
 49
1.905
 74
    0
 49
-0.9525
 74
    0
 49
1.905
 74
    0
 49
-0.9525
 74
    0
 49
0
 74
    0
 49
-0.9525
 74
    0
  0
LTYPE
  5
44
330
5
100
AcDbSymbolTableRecord
100
AcDbLinetypeTableRecord
  2
BORDER2
 70
    0
  3
Border (.5x) __.__.__.__.__.__.__.__.__.__.__.
 72
   65
 73
    6
 40
22.225
 49
6.35
 74
    0
 49
-3.175
 74
    0
 49
6.35
 74
    0
 49
-3.175
 74
    0
 49
0
 74
    0
 49
-3.175
 74
    0
  0
LTYPE
  5
45
330
5
100
AcDbSymbolTableRecord
100
AcDbLinetypeTableRecord
  2
BORDERX2
 70
    0
  3
Border (2x) ____  ____  .  ____  ____  .  ___
 72
   65
 73
    6
 40
88.89999999999999
 49
25.4
 74
    0
 49
-12.7
 74
    0
 49
25.4
 74
    0
 49
-12.7
 74
    0
 49
0
 74
    0
 49
-12.7
 74
    0
  0
LTYPE
  5
46
330
5
100
AcDbSymbolTableRecord
100
AcDbLinetypeTableRecord
  2
CENTER
 70
    0
  3
Center ____ _ ____ _ ____ _ ____ _ ____ _ ____
 72
   65
 73
    4
 40
50.8
 49
31.75
 74
    0
 49
-6.35
 74
    0
 49
6.35
 74
    0
 49
-6.35
 74
    0
  0
LTYPE
  5
47
330
5
100
AcDbSymbolTableRecord
100
AcDbLinetypeTableRecord
  2
CENTERTINY
 70
    0
  3
Center (.15x) ___ _ ___ _ ___ _ ___ _ ___ _ ___
 72
   65
 73
    4
 40
7.62
 49
4.7625
 74
    0
 49
-0.9525
 74
    0
 49
0.9525
 74
    0
 49
-0.9525
 74
    0
  0
LTYPE
  5
48
330
5
100
AcDbSymbolTableRecord
100
AcDbLinetypeTableRecord
  2
CENTER2
 70
    0
  3
Center (.5x) ___ _ ___ _ ___ _ ___ _ ___ _ ___
 72
   65
 73
    4
 40
28.575
 49
19.05
 74
    0
 49
-3.175
 74
    0
 49
3.175
 74
    0
 49
-3.175
 74
    0
  0
LTYPE
  5
49
330
5
100
AcDbSymbolTableRecord
100
AcDbLinetypeTableRecord
  2
CENTERX2
 70
    0
  3
Center (2x) ________  __  ________  __  _____
 72
   65
 73
    4
 40
101.6
 49
63.5
 74
    0
 49
-12.7
 74
    0
 49
12.7
 74
    0
 49
-12.7
 74
    0
  0
ENDTAB
  0
TABLE
  2
LAYER
  5
2
330
0
100
AcDbSymbolTable
 70
    1
  0
LAYER
  5
10
330
2
100
AcDbSymbolTableRecord
100
AcDbLayerTableRecord
  2
0
 70
    1
 62
    7
  6
CONTINUOUS
290
0
370
    0
390
F
1001
LibreCad
1070
    1
  0
LAYER
  5
4A
330
2
100
AcDbSymbolTableRecord
100
AcDbLayerTableRecord
  2
Border
 70
    0
 62
    5
  6
CONTINUOUS
370
  100
390
F
  0
LAYER
  5
4B
330
2
100
AcDbSymbolTableRecord
100
AcDbLayerTableRecord
  2
Dimensions
 70
    0
 62
    7
  6
DOTTINY
370
   50
390
F
  0
LAYER
  5
4C
330
2
100
AcDbSymbolTableRecord
100
AcDbLayerTableRecord
  2
images only
 70
    0
 62
    7
  6
CONTINUOUS
370
    0
390
F
  0
LAYER
  5
4D
330
2
100
AcDbSymbolTableRecord
100
AcDbLayerTableRecord
  2
outlines
 70
    0
 62
    3
  6
CONTINUOUS
370
   50
390
F
  0
ENDTAB
  0
TABLE
  2
STYLE
  5
3
330
0
100
AcDbSymbolTable
 70
    3
  0
STYLE
  5
4E
330
2
100
AcDbSymbolTableRecord
100
AcDbTextStyleTableRecord
  2
Standard
 70
    0
 40
0
 41
1
 50
0
 71
    0
 42
1
  3
txt
  4

  0
ENDTAB
  0
TABLE
  2
VIEW
  5
6
330
0
100
AcDbSymbolTable
 70
    0
  0
ENDTAB
  0
TABLE
  2
UCS
  5
7
330
0
100
AcDbSymbolTable
 70
    0
  0
ENDTAB
  0
TABLE
  2
APPID
  5
9
330
0
100
AcDbSymbolTable
 70
    1
  0
APPID
  5
12
330
9
100
AcDbSymbolTableRecord
100
AcDbRegAppTableRecord
  2
ACAD
 70
    0
  0
APPID
  5
4F
330
9
100
AcDbSymbolTableRecord
100
AcDbRegAppTableRecord
  2
LibreCad
 70
    0
  0
ENDTAB
  0
TABLE
  2
DIMSTYLE
  5
A
330
0
100
AcDbSymbolTable
 70
    1
100
AcDbDimStyleTable
 71
    1
  0
DIMSTYLE
105
50
330
A
100
AcDbSymbolTableRecord
100
AcDbDimStyleTableRecord
  2
Standard
 70
    0
 40
40
 41
1
 42
1
 43
0.38
 44
1
 45
0
 46
0
 47
0
 48
0
 49
1
140
1
141
0.09
142
1
143
25.4
144
1
145
0
146
1
147
1
148
0
 71
    0
 72
    0
 73
    0
 74
    1
 75
    0
 76
    0
 77
    0
 78
    1
 79
    0
170
    0
171
    2
172
    0
173
    0
174
    0
175
    0
176
    0
177
    0
178
    0
179
    0
271
    0
272
    4
273
    2
274
    2
275
    0
276
    0
277
    2
278
    0
279
    0
280
    0
281
    0
282
    0
283
    1
284
    0
285
    0
286
    0
288
    0
289
    3
340
standard
341

371
   -2
372
   -2
  0
ENDTAB
  0
TABLE
  2
BLOCK_RECORD
  5
1
330
0
100
AcDbSymbolTable
 70
    2
  0
BLOCK_RECORD
  5
1F
330
1
100
AcDbSymbolTableRecord
100
AcDbBlockTableRecord
  2
*Model_Space
 70
    0
280
    1
281
    0
  0
BLOCK_RECORD
  5
1E
330
1
100
AcDbSymbolTableRecord
100
AcDbBlockTableRecord
  2
*Paper_Space
 70
    0
280
    1
281
    0
  0
BLOCK_RECORD
  5
51
330
1
100
AcDbSymbolTableRecord
100
AcDbBlockTableRecord
  2
*D9
 70
    0
280
    1
281
    0
  0
BLOCK_RECORD
  5
54
330
1
100
AcDbSymbolTableRecord
100
AcDbBlockTableRecord
  2
*D1
 70
    0
280
    1
281
    0
  0
BLOCK_RECORD
  5
57
330
1
100
AcDbSymbolTableRecord
100
AcDbBlockTableRecord
  2
*D2
 70
    0
280
    1
281
    0
  0
BLOCK_RECORD
  5
5A
330
1
100
AcDbSymbolTableRecord
100
AcDbBlockTableRecord
  2
*D10
 70
    0
280
    1
281
    0
  0
BLOCK_RECORD
  5
5D
330
1
100
AcDbSymbolTableRecord
100
AcDbBlockTableRecord
  2
*D3
 70
    0
280
    1
281
    0
  0
BLOCK_RECORD
  5
60
330
1
100
AcDbSymbolTableRecord
100
AcDbBlockTableRecord
  2
*D7
 70
    0
280
    1
281
    0
  0
BLOCK_RECORD
  5
63
330
1
100
AcDbSymbolTableRecord
100
AcDbBlockTableRecord
  2
*D4
 70
    0
280
    1
281
    0
  0
BLOCK_RECORD
  5
66
330
1
100
AcDbSymbolTableRecord
100
AcDbBlockTableRecord
  2
*D5
 70
    0
280
    1
281
    0
  0
BLOCK_RECORD
  5
69
330
1
100
AcDbSymbolTableRecord
100
AcDbBlockTableRecord
  2
*D6
 70
    0
280
    1
281
    0
  0
BLOCK_RECORD
  5
6C
330
1
100
AcDbSymbolTableRecord
100
AcDbBlockTableRecord
  2
*D8
 70
    0
280
    1
281
    0
  0
ENDTAB
  0
ENDSEC
  0
SECTION
  2
BLOCKS
  0
BLOCK
  5
20
330
1F
100
AcDbEntity
  8
0
100
AcDbBlockBegin
  2
*Model_Space
 70
    0
 10
0
 20
0
 30
0
  3
*Model_Space
  1

  0
ENDBLK
  5
21
330
1F
100
AcDbEntity
  8
0
100
AcDbBlockEnd
  0
BLOCK
  5
1C
330
1B
100
AcDbEntity
  8
0
100
AcDbBlockBegin
  2
*Paper_Space
 70
    0
 10
0
 20
0
 30
0
  3
*Paper_Space
  1

  0
ENDBLK
  5
1D
330
1F
100
AcDbEntity
  8
0
100
AcDbBlockEnd
  0
BLOCK
  5
52
330
51
100
AcDbEntity
  8
0
100
AcDbBlockBegin
  2
*D9
 70
    1
 10
0
 20
0
  3
*D9
  1

  0
LINE
  5
6F
100
AcDbEntity
  8
Dimensions
  6
ByBlock
 62
    0
370
   -2
100
AcDbLine
 10
306.4892163079518
 20
-100
 11
837.5220395263634
 21
-100
  0
LINE
  5
70
100
AcDbEntity
  8
Dimensions
  6
ByBlock
 62
    0
370
   -2
100
AcDbLine
 10
334.7734875554137
 20
-71.7157287525381
 11
278.2049450604899
 21
-128.2842712474619
  0
LINE
  5
71
100
AcDbEntity
  8
Dimensions
  6
ByBlock
 62
    0
370
   -2
100
AcDbLine
 10
865.8063107738253
 20
-71.7157287525381
 11
809.2377682789015
 21
-128.2842712474619
  0
MTEXT
  5
72
100
AcDbEntity
  8
Dimensions
  6
CONTINUOUS
 62
    0
370
   -2
100
AcDbMText
 10
572.0056279171577
 20
-40
 30
0
 40
40
 41
71.11111111111609
 71
    5
 72
    1
  1
531
  7
standard
210
0
220
0
230
1
 50
0
 73
    2
 44
1
  0
LINE
  5
73
100
AcDbEntity
  8
Dimensions
  6
ByBlock
 62
    0
370
   -2
100
AcDbLine
 10
306.4892163079518
 20
356.1885789355757
 11
306.4892163079518
 21
-140
  0
LINE
  5
74
100
AcDbEntity
  8
Dimensions
  6
ByBlock
 62
    0
370
   -2
100
AcDbLine
 10
837.5220395263634
 20
484.1885789355757
 11
837.5220395263634
 21
-140
  0
ENDBLK
  5
53
330
51
100
AcDbEntity
  8
0
100
AcDbBlockEnd
  0
BLOCK
  5
55
330
54
100
AcDbEntity
  8
0
100
AcDbBlockBegin
  2
*D1
 70
    1
 10
0
 20
0
  3
*D1
  1

  0
LINE
  5
75
100
AcDbEntity
  8
Dimensions
  6
ByBlock
 62
    0
370
   -2
100
AcDbLine
 10
50.00000000000004
 20
0
 11
49.99999999999998
 21
-340
  0
LINE
  5
76
100
AcDbEntity
  8
Dimensions
  6
ByBlock
 62
    0
370
   -2
100
AcDbLine
 10
1881
 20
0
 11
1881
 21
-340
  0
LINE
  5
77
100
AcDbEntity
  8
Dimensions
  6
ByBlock
 62
    0
370
   -2
100
AcDbLine
 10
49.99999999999999
 20
-300
 11
1881
 21
-300
  0
LINE
  5
78
100
AcDbEntity
  8
Dimensions
  6
ByBlock
 62
    0
370
   -2
100
AcDbLine
 10
78.2842712474619
 20
-271.7157287525381
 11
21.71572875253808
 21
-328.2842712474619
  0
LINE
  5
79
100
AcDbEntity
  8
Dimensions
  6
ByBlock
 62
    0
370
   -2
100
AcDbLine
 10
1909.284271247462
 20
-271.7157287525381
 11
1852.715728752538
 21
-328.2842712474619
  0
MTEXT
  5
7A
100
AcDbEntity
  8
Dimensions
  6
CONTINUOUS
 62
    0
370
   -2
100
AcDbMText
 10
965.5
 20
-240
 30
0
 40
40
 41
93.33333333333582
 71
    5
 72
    1
  1
1831
  7
standard
210
0
220
0
230
1
 50
0
 73
    2
 44
1
  0
ENDBLK
  5
56
330
54
100
AcDbEntity
  8
0
100
AcDbBlockEnd
  0
BLOCK
  5
58
330
57
100
AcDbEntity
  8
0
100
AcDbBlockBegin
  2
*D2
 70
    1
 10
0
 20
0
  3
*D2
  1

  0
LINE
  5
7B
100
AcDbEntity
  8
Dimensions
  6
ByBlock
 62
    0
370
   -2
100
AcDbLine
 10
1921
 20
807
 11
2240
 21
807
  0
LINE
  5
7C
100
AcDbEntity
  8
Dimensions
  6
ByBlock
 62
    0
370
   -2
100
AcDbLine
 10
1921
 20
40.00000000000001
 11
2240
 21
40.00000000000005
  0
LINE
  5
7D
100
AcDbEntity
  8
Dimensions
  6
ByBlock
 62
    0
370
   -2
100
AcDbLine
 10
2200
 20
807
 11
2200
 21
40.00000000000004
  0
LINE
  5
7E
100
AcDbEntity
  8
Dimensions
  6
ByBlock
 62
    0
370
   -2
100
AcDbLine
 10
2228.284271247462
 20
778.7157287525381
 11
2171.715728752538
 21
835.2842712474619
  0
LINE
  5
7F
100
AcDbEntity
  8
Dimensions
  6
ByBlock
 62
    0
370
   -2
100
AcDbLine
 10
2228.284271247462
 20
11.71572875253814
 11
2171.715728752538
 21
68.28427124746194
  0
MTEXT
  5
80
100
AcDbEntity
  8
Dimensions
  6
CONTINUOUS
 62
    0
370
   -2
100
AcDbMText
 10
2140
 20
423.4999999999999
 30
0
 40
40
 41
80.00000000000249
 71
    5
 72
    1
  1
767
  7
standard
210
0
220
0
230
1
 50
90
 73
    2
 44
1
  0
ENDBLK
  5
59
330
57
100
AcDbEntity
  8
0
100
AcDbBlockEnd
  0
BLOCK
  5
5B
330
5A
100
AcDbEntity
  8
0
100
AcDbBlockBegin
  2
*D10
 70
    1
 10
0
 20
0
  3
*D10
  1

  0
LINE
  5
81
100
AcDbEntity
  8
Dimensions
  6
ByBlock
 62
    0
370
   -2
100
AcDbLine
 10
837.5220395263634
 20
-100
 11
1411.061618859254
 21
-100
  0
LINE
  5
82
100
AcDbEntity
  8
Dimensions
  6
ByBlock
 62
    0
370
   -2
100
AcDbLine
 10
865.8063107738253
 20
-71.7157287525381
 11
809.2377682789015
 21
-128.2842712474619
  0
LINE
  5
83
100
AcDbEntity
  8
Dimensions
  6
ByBlock
 62
    0
370
   -2
100
AcDbLine
 10
1439.345890106716
 20
-71.7157287525381
 11
1382.777347611792
 21
-128.2842712474619
  0
MTEXT
  5
84
100
AcDbEntity
  8
Dimensions
  6
CONTINUOUS
 62
    0
370
   -2
100
AcDbMText
 10
1124.291829192809
 20
-40
 30
0
 40
40
 41
84.44444444444693
 71
    5
 72
    1
  1
574
  7
standard
210
0
220
0
230
1
 50
0
 73
    2
 44
1
  0
LINE
  5
85
100
AcDbEntity
  8
Dimensions
  6
ByBlock
 62
    0
370
   -2
100
AcDbLine
 10
837.5220395263634
 20
356.1885789355757
 11
837.5220395263634
 21
-140
  0
LINE
  5
86
100
AcDbEntity
  8
Dimensions
  6
ByBlock
 62
    0
370
   -2
100
AcDbLine
 10
1411.061618859254
 20
484.1885789355757
 11
1411.061618859254
 21
-140
  0
ENDBLK
  5
5C
330
5A
100
AcDbEntity
  8
0
100
AcDbBlockEnd
  0
BLOCK
  5
5E
330
5D
100
AcDbEntity
  8
0
100
AcDbBlockBegin
  2
*D3
 70
    1
 10
0
 20
0
  3
*D3
  1

  0
LINE
  5
87
100
AcDbEntity
  8
Dimensions
  6
ByBlock
 62
    0
370
   -2
100
AcDbLine
 10
-162.477960473646
 20
807
 11
-162.477960473646
 21
524.1885789355757
  0
LINE
  5
88
100
AcDbEntity
  8
Dimensions
  6
ByBlock
 62
    0
370
   -2
100
AcDbLine
 10
-134.1936892261841
 20
778.7157287525381
 11
-190.7622317211079
 21
835.2842712474619
  0
LINE
  5
89
100
AcDbEntity
  8
Dimensions
  6
ByBlock
 62
    0
370
   -2
100
AcDbLine
 10
-134.1936892261841
 20
495.9043076881138
 11
-190.7622317211079
 21
552.4728501830376
  0
MTEXT
  5
8A
100
AcDbEntity
  8
Dimensions
  6
CONTINUOUS
 62
    0
370
   -2
100
AcDbMText
 10
-222.477960473646
 20
665.5942894677878
 30
0
 40
40
 41
80.0000000000025
 71
    5
 72
    1
  1
283
  7
standard
210
0
220
0
230
1
 50
90
 73
    2
 44
1
  0
LINE
  5
8B
100
AcDbEntity
  8
Dimensions
  6
ByBlock
 62
    0
370
   -2
100
AcDbLine
 10
10.00000000000005
 20
807
 11
-202.477960473646
 21
807
  0
LINE
  5
8C
100
AcDbEntity
  8
Dimensions
  6
ByBlock
 62
    0
370
   -2
100
AcDbLine
 10
266.4892163079518
 20
524.1885789355757
 11
-202.477960473646
 21
524.1885789355757
  0
ENDBLK
  5
5F
330
5D
100
AcDbEntity
  8
0
100
AcDbBlockEnd
  0
BLOCK
  5
61
330
60
100
AcDbEntity
  8
0
100
AcDbBlockBegin
  2
*D7
 70
    1
 10
0
 20
0
  3
*D7
  1

  0
LINE
  5
8D
100
AcDbEntity
  8
Dimensions
  6
ByBlock
 62
    0
370
   -2
100
AcDbLine
 10
837.2279298298174
 20
564.1874976645414
 11
834.473543967013
 21
938.7839750059037
  0
LINE
  5
8E
100
AcDbEntity
  8
Dimensions
  6
ByBlock
 62
    0
370
   -2
100
AcDbLine
 10
1093.22801577741
 20
566.0698512376855
 11
1090.473629914606
 21
940.6663285790478
  0
LINE
  5
8F
100
AcDbEntity
  8
Dimensions
  6
ByBlock
 62
    0
370
   -2
100
AcDbLine
 10
834.7676536635496
 20
898.785056276938
 11
1090.767739611142
 21
900.6674098500821
  0
LINE
  5
90
100
AcDbEntity
  8
Dimensions
  6
ByBlock
 62
    0
370
   -2
100
AcDbLine
 10
862.8431933760971
 20
927.2765299111529
 11
806.6921139510021
 21
870.2935826427231
  0
LINE
  5
91
100
AcDbEntity
  8
Dimensions
  6
ByBlock
 62
    0
370
   -2
100
AcDbLine
 10
1118.84327932369
 20
929.158883484297
 11
1062.692199898594
 21
872.1759362158672
  0
MTEXT
  5
92
100
AcDbEntity
  8
Dimensions
  6
CONTINUOUS
 62
    0
370
   -2
100
AcDbMText
 10
962.326532092541
 20
959.7246111569586
 30
0
 40
40
 41
80.00000000000497
 71
    5
 72
    1
  1
256
  7
standard
210
0
220
0
230
1
 50
0.4212849041686029
 73
    2
 44
1
  0
ENDBLK
  5
62
330
60
100
AcDbEntity
  8
0
100
AcDbBlockEnd
  0
BLOCK
  5
64
330
63
100
AcDbEntity
  8
0
100
AcDbBlockBegin
  2
*D4
 70
    1
 10
0
 20
0
  3
*D4
  1

  0
LINE
  5
93
100
AcDbEntity
  8
Dimensions
  6
ByBlock
 62
    0
370
   -2
100
AcDbLine
 10
50.00000000000006
 20
-100
 11
306.4892163079518
 21
-100
  0
LINE
  5
94
100
AcDbEntity
  8
Dimensions
  6
ByBlock
 62
    0
370
   -2
100
AcDbLine
 10
78.28427124746196
 20
-71.7157287525381
 11
21.71572875253815
 21
-128.2842712474619
  0
LINE
  5
95
100
AcDbEntity
  8
Dimensions
  6
ByBlock
 62
    0
370
   -2
100
AcDbLine
 10
334.7734875554137
 20
-71.7157287525381
 11
278.2049450604899
 21
-128.2842712474619
  0
MTEXT
  5
96
100
AcDbEntity
  8
Dimensions
  6
CONTINUOUS
 62
    0
370
   -2
100
AcDbMText
 10
178.2446081539759
 20
-40
 30
0
 40
40
 41
80.00000000000497
 71
    5
 72
    1
  1
256
  7
standard
210
0
220
0
230
1
 50
0
 73
    2
 44
1
  0
LINE
  5
97
100
AcDbEntity
  8
Dimensions
  6
ByBlock
 62
    0
370
   -2
100
AcDbLine
 10
50.00000000000004
 20
0
 11
50.00000000000005
 21
-140
  0
LINE
  5
98
100
AcDbEntity
  8
Dimensions
  6
ByBlock
 62
    0
370
   -2
100
AcDbLine
 10
306.4892163079518
 20
484.1885789355757
 11
306.4892163079518
 21
-140
  0
ENDBLK
  5
65
330
63
100
AcDbEntity
  8
0
100
AcDbBlockEnd
  0
BLOCK
  5
67
330
66
100
AcDbEntity
  8
0
100
AcDbBlockBegin
  2
*D5
 70
    1
 10
0
 20
0
  3
*D5
  1

  0
LINE
  5
99
100
AcDbEntity
  8
Dimensions
  6
ByBlock
 62
    0
370
   -2
100
AcDbLine
 10
1451.061618859254
 20
524.1885789355757
 11
2040
 21
524.1885789355757
  0
LINE
  5
9A
100
AcDbEntity
  8
Dimensions
  6
ByBlock
 62
    0
370
   -2
100
AcDbLine
 10
1451.061618859254
 20
396.1885789355757
 11
2040
 21
396.1885789355757
  0
LINE
  5
9B
100
AcDbEntity
  8
Dimensions
  6
ByBlock
 62
    0
370
   -2
100
AcDbLine
 10
2000
 20
524.1885789355757
 11
2000
 21
396.1885789355757
  0
LINE
  5
9C
100
AcDbEntity
  8
Dimensions
  6
ByBlock
 62
    0
370
   -2
100
AcDbLine
 10
2028.284271247462
 20
495.9043076881138
 11
1971.715728752538
 21
552.4728501830376
  0
LINE
  5
9D
100
AcDbEntity
  8
Dimensions
  6
ByBlock
 62
    0
370
   -2
100
AcDbLine
 10
2028.284271247462
 20
367.9043076881138
 11
1971.715728752538
 21
424.4728501830376
  0
MTEXT
  5
9E
100
AcDbEntity
  8
Dimensions
  6
CONTINUOUS
 62
    0
370
   -2
100
AcDbMText
 10
1940
 20
460.1885789355757
 30
0
 40
40
 41
71.11111111111111
 71
    5
 72
    1
  1
128
  7
standard
210
0
220
0
230
1
 50
90
 73
    2
 44
1
  0
ENDBLK
  5
68
330
66
100
AcDbEntity
  8
0
100
AcDbBlockEnd
  0
BLOCK
  5
6A
330
69
100
AcDbEntity
  8
0
100
AcDbBlockBegin
  2
*D6
 70
    1
 10
0
 20
0
  3
*D6
  1

  0
LINE
  5
9F
100
AcDbEntity
  8
Dimensions
  6
ByBlock
 62
    0
370
   -2
100
AcDbLine
 10
306.3626346632901
 20
568.4266632988782
 11
305.1897213940833
 21
939.0672563682749
  0
LINE
  5
A0
100
AcDbEntity
  8
Dimensions
  6
ByBlock
 62
    0
370
   -2
100
AcDbLine
 10
562.3626346632901
 20
569.2367898811567
 11
561.1897213940833
 21
939.8773829505535
  0
LINE
  5
A1
100
AcDbEntity
  8
Dimensions
  6
ByBlock
 62
    0
370
   -2
100
AcDbLine
 10
305.316303038745
 20
899.0674566551859
 11
561.316303038745
 21
899.8775832374645
  0
LINE
  5
A2
100
AcDbEntity
  8
Dimensions
  6
ByBlock
 62
    0
370
   -2
100
AcDbLine
 10
333.5109259226599
 20
927.4410930177288
 11
277.1216801548301
 21
870.693820292643
  0
LINE
  5
A3
100
AcDbEntity
  8
Dimensions
  6
ByBlock
 62
    0
370
   -2
100
AcDbLine
 10
589.5109259226599
 20
928.2512196000074
 11
533.1216801548301
 21
871.5039468749216
  0
MTEXT
  5
A4
100
AcDbEntity
  8
Dimensions
  6
CONTINUOUS
 62
    0
370
   -2
100
AcDbMText
 10
433.1264305717525
 20
959.4722195159586
 30
0
 40
40
 41
80.00000000000497
 71
    5
 72
    1
  1
256
  7
standard
210
0
220
0
230
1
 50
0.1813151526990248
 73
    2
 44
1
  0
ENDBLK
  5
6B
330
69
100
AcDbEntity
  8
0
100
AcDbBlockEnd
  0
BLOCK
  5
6D
330
6C
100
AcDbEntity
  8
0
100
AcDbBlockBegin
  2
*D8
 70
    1
 10
0
 20
0
  3
*D8
  1

  0
LINE
  5
A5
100
AcDbEntity
  8
Dimensions
  6
ByBlock
 62
    0
370
   -2
100
AcDbLine
 10
1411.061618859254
 20
564.1885789355757
 11
1411.061618859254
 21
940
  0
LINE
  5
A6
100
AcDbEntity
  8
Dimensions
  6
ByBlock
 62
    0
370
   -2
100
AcDbLine
 10
1667.061618859254
 20
564.1885789355757
 11
1667.061618859254
 21
940
  0
LINE
  5
A7
100
AcDbEntity
  8
Dimensions
  6
ByBlock
 62
    0
370
   -2
100
AcDbLine
 10
1411.061618859254
 20
900
 11
1667.061618859254
 21
900
  0
LINE
  5
A8
100
AcDbEntity
  8
Dimensions
  6
ByBlock
 62
    0
370
   -2
100
AcDbLine
 10
1439.345890106716
 20
928.2842712474619
 11
1382.777347611792
 21
871.7157287525381
  0
LINE
  5
A9
100
AcDbEntity
  8
Dimensions
  6
ByBlock
 62
    0
370
   -2
100
AcDbLine
 10
1695.345890106716
 20
928.2842712474619
 11
1638.777347611792
 21
871.7157287525381
  0
MTEXT
  5
AA
100
AcDbEntity
  8
Dimensions
  6
CONTINUOUS
 62
    0
370
   -2
100
AcDbMText
 10
1539.061618859254
 20
960
 30
0
 40
40
 41
80.00000000000497
 71
    5
 72
    1
  1
256
  7
standard
210
0
220
0
230
1
 50
0
 73
    2
 44
1
  0
ENDBLK
  5
6E
330
6C
100
AcDbEntity
  8
0
100
AcDbBlockEnd
  0
ENDSEC
  0
SECTION
  2
ENTITIES
  0
IMAGE
  5
AD
100
AcDbEntity
  8
images only
  6
ByLayer
 62
  256
370
   -1
100
AcDbRasterImage
 10
306.489
 20
396.189
 30
0
 11
1
 21
0
 31
0
 12
6.123031769111886e-017
 22
1
 32
0
 13
256
 23
128
340
AB
 70
    1
280
    0
281
   50
282
   50
283
    0
360
AC
  0
IMAGE
  5
B0
100
AcDbEntity
  8
images only
  6
ByLayer
 62
  256
370
   -1
100
AcDbRasterImage
 10
837.516
 20
396.189
 30
0
 11
1
 21
0
 31
0
 12
6.123031769111886e-017
 22
1
 32
0
 13
256
 23
128
340
AE
 70
    1
280
    0
281
   50
282
   50
283
    0
360
AF
  0
IMAGE
  5
B3
100
AcDbEntity
  8
images only
  6
ByLayer
 62
  256
370
   -1
100
AcDbRasterImage
 10
1411.06
 20
396.189
 30
0
 11
1
 21
0
 31
0
 12
6.123031769111886e-017
 22
1
 32
0
 13
256
 23
128
340
B1
 70
    1
280
    0
281
   50
282
   50
283
    0
360
B2
  0
IMAGE
  5
B6
100
AcDbEntity
  8
0
  6
ByLayer
 62
  256
370
   -1
100
AcDbRasterImage
 10
50
 20
40
 30
0
 11
1
 21
0
 31
0
 12
6.123031769111886e-017
 22
1
 32
0
 13
1831
 23
767
340
B4
 70
    1
280
    0
281
   50
282
   50
283
    0
360
B5
  0
LINE
  5
B7
100
AcDbEntity
  8
outlines
  6
ByLayer
 62
  256
370
   -1
100
AcDbLine
 10
179.5285303494662
 20
528.0250892631358
 11
656.2597537984689
 21
529.5337323753162
  0
LINE
  5
B8
100
AcDbEntity
  8
outlines
  6
ByLayer
 62
  256
370
   -1
100
AcDbLine
 10
208.1927494808936
 20
736.2178387440293
 11
660.78568313501
 21
740.7437680805706
  0
LINE
  5
B9
100
AcDbEntity
  8
outlines
  6
ByLayer
 62
  256
370
   -1
100
AcDbLine
 10
745.2696974171117
 20
742.252411192751
 11
1185.793486173785
 21
743.7610543049313
  0
LINE
  5
BA
100
AcDbEntity
  8
outlines
  6
ByLayer
 62
  256
370
   -1
100
AcDbLine
 10
743.7610543049313
 20
523.4991599265946
 11
1154.111980817997
 21
526.5164461509554
  0
ARC
  5
BB
100
AcDbEntity
  8
outlines
  6
ByLayer
 62
  256
370
   -1
100
AcDbCircle
 10
4048.152091222064
 20
557.6966094210268
 40
3341.290618923106
100
AcDbArc
 50
177.2999333255494
 51
180.1169182229359
  0
ARC
  5
BC
100
AcDbEntity
  8
outlines
  6
ByLayer
 62
  256
370
   -1
100
AcDbCircle
 10
738.3750380921488
 20
554.787106916127
 40
31.74814636264831
100
AcDbArc
 50
187.0720650012582
 51
279.7673659005813
  0
ARC
  5
BD
100
AcDbEntity
  8
outlines
  6
ByLayer
 62
  256
370
   -1
100
AcDbCircle
 10
741.194673375976
 20
711.7129259483722
 40
30.81016033595836
100
AcDbArc
 50
82.39965582219372
 51
173.6944292414583
  0
ARC
  5
BE
100
AcDbEntity
  8
outlines
  6
ByLayer
 62
  256
370
   -1
100
AcDbCircle
 10
860.3821302036083
 20
674.0463509126103
 40
357.2731733550336
100
AcDbArc
 50
339.112716207683
 51
8.113049740788028
  0
ARC
  5
BF
100
AcDbEntity
  8
outlines
  6
ByLayer
 62
  256
370
   -1
100
AcDbCircle
 10
1160.283232164187
 20
564.1507300249694
 40
38.13690687362733
100
AcDbArc
 50
260.6875444588909
 51
332.7139612416764
  0
ARC
  5
C0
100
AcDbEntity
  8
outlines
  6
ByLayer
 62
  256
370
   -1
100
AcDbCircle
 10
1189.417509426332
 20
718.6925846586886
 40
25.32906857623464
100
AcDbArc
 50
13.17825686147033
 51
98.22597514911223
  0
ARC
  5
C1
100
AcDbEntity
  8
outlines
  6
ByLayer
 62
  256
370
   -1
100
AcDbCircle
 10
62840.71903831769
 20
-1416.456964416778
 40
62192.26479230184
100
AcDbArc
 50
178.0312718559861
 51
178.1864187406432
  0
ARC
  5
C2
100
AcDbEntity
  8
outlines
  6
ByLayer
 62
  256
370
   -1
100
AcDbCircle
 10
661.0587358986746
 20
547.8725615877527
 40
18.95634157956141
100
AcDbArc
 50
255.3354328419105
 51
11.90748944743421
  0
ARC
  5
C3
100
AcDbEntity
  8
outlines
  6
ByLayer
 62
  256
370
   -1
100
AcDbCircle
 10
663.3057677711207
 20
718.7049235237454
 40
22.18245919579399
100
AcDbArc
 50
9.797383609036045
 51
96.52329065012682
  0
ARC
  5
C4
100
AcDbEntity
  8
outlines
  6
ByLayer
 62
  256
370
   -1
100
AcDbCircle
 10
599.0083209382797
 20
550.7469934273591
 40
457.7761497482642
100
AcDbArc
 50
157.9667029211211
 51
178.8764559346441
  0
ARC
  5
C5
100
AcDbEntity
  8
outlines
  6
ByLayer
 62
  256
370
   -1
100
AcDbCircle
 10
199.3486395027719
 20
710.0214960054283
 40
27.6489901114556
100
AcDbArc
 50
71.34487660794022
 51
153.2190684043538
  0
ARC
  5
C6
100
AcDbEntity
  8
outlines
  6
ByLayer
 62
  256
370
   -1
100
AcDbCircle
 10
173.0099018472274
 20
559.0445396175065
 40
31.69698436503811
100
AcDbArc
 50
178.7731543163207
 51
281.8678174367515
  0
ARC
  5
C7
100
AcDbEntity
  8
outlines
  6
ByLayer
 62
  256
370
   -1
100
AcDbCircle
 10
744.4520128503111
 20
-8695.52971058121
 40
8871.608194044167
100
AcDbArc
 50
86.68578514627717
 51
90.9084463974292
  0
ARC
  5
C8
100
AcDbEntity
  8
outlines
  6
ByLayer
 62
  256
370
   -1
100
AcDbCircle
 10
147.24969208552
 20
-2684.625180870482
 40
2887.763648774317
100
AcDbArc
 50
87.73568235555166
 51
90.83199775350755
  0
ARC
  5
C9
100
AcDbEntity
  8
outlines
  6
ByLayer
 62
  256
370
   -1
100
AcDbCircle
 10
-4809.831553619122
 20
340.0070152791424
 40
6086.652257272667
100
AcDbArc
 50
1.187307315728868
 51
4.017817089270804
  0
ARC
  5
CA
100
AcDbEntity
  8
outlines
  6
ByLayer
 62
  256
370
   -1
100
AcDbCircle
 10
1407.439582913915
 20
445.7890394263613
 40
133.4843387886873
100
AcDbArc
 50
171.2356529314178
 51
209.3740400061143
  0
ARC
  5
CB
100
AcDbEntity
  8
outlines
  6
ByLayer
 62
  256
370
   -1
100
AcDbCircle
 10
1720.760103469357
 20
827.4430630619752
 40
620.3154899624934
100
AcDbArc
 50
226.9066647732414
 51
237.840867949419
  0
ARC
  5
CC
100
AcDbEntity
  8
outlines
  6
ByLayer
 62
  256
370
   -1
100
AcDbCircle
 10
1582.040290022567
 20
79.63835443919385
 40
298.8016600026359
100
AcDbArc
 50
131.8250594329068
 51
148.8865906528036
  0
ARC
  5
CD
100
AcDbEntity
  8
outlines
  6
ByLayer
 62
  256
370
   -1
100
AcDbCircle
 10
1478.347901997671
 20
130.1843304199797
 40
196.7276099039788
100
AcDbArc
 50
79.72055622498654
 51
117.7717683001239
  0
LINE
  5
CE
100
AcDbEntity
  8
outlines
  6
ByLayer
 62
  256
370
   -1
100
AcDbLine
 10
1661.678644461762
 20
163.8274719891878
 11
1833.307424640911
 21
173.5791072266395
  0
LINE
  5
CF
100
AcDbEntity
  8
outlines
  6
ByLayer
 62
  256
370
   -1
100
AcDbLine
 10
134.5725662768329
 20
754.7765673787583
 11
115.0692958019296
 21
721.6210075714226
  0
LINE
  5
D0
100
AcDbEntity
  8
outlines
  6
ByLayer
 62
  256
370
   -1
100
AcDbLine
 10
115.0692958019296
 20
721.6210075714226
 11
87.76471713706491
 21
620.2040011019253
  0
LINE
  5
D1
100
AcDbEntity
  8
outlines
  6
ByLayer
 62
  256
370
   -1
100
AcDbLine
 10
87.76471713706491
 20
620.2040011019253
 11
74.11242780463259
 21
530.4889569173702
  0
LINE
  5
D2
100
AcDbEntity
  8
outlines
  6
ByLayer
 62
  256
370
   -1
100
AcDbLine
 10
74.11242780463259
 20
530.4889569173702
 11
72.16210075714226
 21
462.2275102552085
  0
LINE
  5
D3
100
AcDbEntity
  8
outlines
  6
ByLayer
 62
  256
370
   -1
100
AcDbLine
 10
72.16210075714226
 20
462.2275102552085
 11
72.16210075714226
 21
405.6680258779889
  0
LINE
  5
D4
100
AcDbEntity
  8
outlines
  6
ByLayer
 62
  256
370
   -1
100
AcDbLine
 10
72.16210075714226
 20
405.6680258779889
 11
76.06275485212292
 21
356.9098496907307
  0
LINE
  5
D5
100
AcDbEntity
  8
outlines
  6
ByLayer
 62
  256
370
   -1
100
AcDbLine
 10
76.06275485212292
 20
302.3006923610014
 11
91.66537123204557
 21
253.5425161737431
  0
LINE
  5
D6
100
AcDbEntity
  8
outlines
  6
ByLayer
 62
  256
370
   -1
100
AcDbLine
 10
91.66537123204557
 20
253.5425161737431
 11
103.3673335169876
 21
200.8836858915041
  0
LINE
  5
D7
100
AcDbEntity
  8
outlines
  6
ByLayer
 62
  256
370
   -1
100
AcDbLine
 10
140.4235474193038
 20
756.7268944262486
 11
481.7307807301119
 21
760.6275485212292
  0
LINE
  5
D8
100
AcDbEntity
  8
outlines
  6
ByLayer
 62
  256
370
   -1
100
AcDbLine
 10
481.7307807301119
 20
760.6275485212292
 11
1257.960945631264
 21
764.5282026162099
  0
LINE
  5
D9
100
AcDbEntity
  8
outlines
  6
ByLayer
 62
  256
370
   -1
100
AcDbLine
 10
1289.166178391109
 20
727.4719887138936
 11
1287.215851343619
 21
661.1608690992223
  0
LINE
  5
DA
100
AcDbEntity
  8
outlines
  6
ByLayer
 62
  256
370
   -1
100
AcDbLine
 10
1287.215851343619
 20
661.1608690992223
 11
1302.818467723541
 21
596.8000765320414
  0
LINE
  5
DB
100
AcDbEntity
  8
outlines
  6
ByLayer
 62
  256
370
   -1
100
AcDbLine
 10
1743.592380456356
 20
534.3896110123508
 11
1646.07602808184
 21
536.3399380598411
  0
LINE
  5
DC
100
AcDbEntity
  8
outlines
  6
ByLayer
 62
  256
370
   -1
100
AcDbLine
 10
1646.07602808184
 20
536.3399380598411
 11
1357.427625053271
 21
557.7935355822348
  0
LINE
  5
DD
100
AcDbEntity
  8
outlines
  6
ByLayer
 62
  256
370
   -1
100
AcDbLine
 10
1357.427625053271
 20
557.7935355822348
 11
1322.321738198445
 21
571.4458249146671
  0
LINE
  5
DE
100
AcDbEntity
  8
outlines
  6
ByLayer
 62
  256
370
   -1
100
AcDbLine
 10
1322.321738198445
 20
571.4458249146671
 11
1302.818467723541
 21
596.8000765320414
  0
LINE
  5
DF
100
AcDbEntity
  8
outlines
  6
ByLayer
 62
  256
370
   -1
100
AcDbLine
 10
1743.592380456356
 20
553.8928814872542
 11
1667.529625604233
 21
641.657598624319
  0
LINE
  5
E0
100
AcDbEntity
  8
outlines
  6
ByLayer
 62
  256
370
   -1
100
AcDbLine
 10
1667.529625604233
 20
641.657598624319
 11
1560.261637992265
 21
735.2732969038549
  0
LINE
  5
E1
100
AcDbEntity
  8
outlines
  6
ByLayer
 62
  256
370
   -1
100
AcDbLine
 10
1560.261637992265
 20
735.2732969038549
 11
1527.106078184929
 21
748.9255862362872
  0
LINE
  5
E2
100
AcDbEntity
  8
outlines
  6
ByLayer
 62
  256
370
   -1
100
AcDbLine
 10
1527.106078184929
 20
748.9255862362872
 11
1295.01715953358
 21
754.7765673787583
  0
ARC
  5
E3
100
AcDbEntity
  8
outlines
  6
ByLayer
 62
  256
370
   -1
100
AcDbCircle
 10
1327.685137579044
 20
735.2732969038549
 40
39.73417429274334
100
AcDbArc
 50
150.6039471450574
 51
194.20676611776
  0
ARC
  5
E4
100
AcDbEntity
  8
outlines
  6
ByLayer
 62
  256
370
   -1
100
AcDbCircle
 10
174.4029149927776
 20
442.6658597023891
 40
1617.977381647838
100
AcDbArc
 50
351.5454973609038
 51
2.834886366955569
  0
ARC
  5
E5
100
AcDbEntity
  8
outlines
  6
ByLayer
 62
  256
370
   -1
100
AcDbCircle
 10
996.0676792506387
 20
-38.87206213447143
 40
969.9045258988083
100
AcDbArc
 50
34.81588091507647
 51
54.71255154517035
  0
ARC
  5
E6
100
AcDbEntity
  8
outlines
  6
ByLayer
 62
  256
370
   -1
100
AcDbCircle
 10
757.8130521722043
 20
-8434.236885824146
 40
9231.924926178335
100
AcDbArc
 50
90.05515798399794
 51
93.72536944632182
  0
ARC
  5
E7
100
AcDbEntity
  8
outlines
  6
ByLayer
 62
  256
370
   -1
100
AcDbCircle
 10
874.7216807992689
 20
-28389.28555778868
 40
29187.24041009045
100
AcDbArc
 50
88.82646003059776
 51
90.24694378471844
  0
ARC
  5
E8
100
AcDbEntity
  8
outlines
  6
ByLayer
 62
  256
370
   -1
100
AcDbCircle
 10
1467.71397595302
 20
615.7925470659318
 40
176.1051976077359
100
AcDbArc
 50
52.11176570632769
 51
88.44367876477813
  0
ARC
  5
E9
100
AcDbEntity
  8
outlines
  6
ByLayer
 62
  256
370
   -1
100
AcDbCircle
 10
167.8674351589975
 20
721.4816984965934
 40
57.55505154464688
100
AcDbArc
 50
99.89550926262532
 51
144.6557793665351
  0
ARC
  5
EA
100
AcDbEntity
  8
outlines
  6
ByLayer
 62
  256
370
   -1
100
AcDbCircle
 10
-1554.410656849815
 20
1045.544891111126
 40
1685.677179115371
100
AcDbArc
 50
343.8032042476052
 51
348.5154047690836
  0
ARC
  5
EB
100
AcDbEntity
  8
outlines
  6
ByLayer
 62
  256
370
   -1
100
AcDbCircle
 10
858.4689554036604
 20
418.3451516866761
 40
806.2401601569314
100
AcDbArc
 50
172.843466247934
 51
181.8714431639365
  0
ARC
  5
EC
100
AcDbEntity
  8
outlines
  6
ByLayer
 62
  256
370
   -1
100
AcDbCircle
 10
-18.13804154166001
 20
328.7763820306826
 40
77.41522516352148
100
AcDbArc
 50
340.0014781266873
 51
15.22663381253503
  0
ARC
  5
ED
100
AcDbEntity
  8
outlines
  6
ByLayer
 62
  256
370
   -1
100
AcDbCircle
 10
231.9388934938503
 20
305.3011955109865
 40
176.5796741086257
100
AcDbArc
 50
186.6842418317647
 51
208.023807440758
  0
ARC
  5
EE
100
AcDbEntity
  8
outlines
  6
ByLayer
 62
  256
370
   -1
100
AcDbCircle
 10
153.100673227991
 20
387.1399189268305
 40
182.0450352160188
100
AcDbArc
 50
249.6235647861636
 51
277.6960517220165
  0
ARC
  5
EF
100
AcDbEntity
  8
outlines
  6
ByLayer
 62
  256
370
   -1
100
AcDbCircle
 10
1459.656416864524
 20
215.082271019961
 40
142.2345624915012
100
AcDbArc
 50
109.5601640270501
 51
148.8542429828855
  0
ARC
  5
F0
100
AcDbEntity
  8
outlines
  6
ByLayer
 62
  256
370
   -1
100
AcDbCircle
 10
1466.776261105303
 20
125.8140699276193
 40
233.6964605169432
100
AcDbArc
 50
74.54388837614079
 51
103.5464291161148
  0
ARC
  5
F1
100
AcDbEntity
  8
outlines
  6
ByLayer
 62
  256
370
   -1
100
AcDbCircle
 10
1525.197801309921
 20
248.1060295885931
 40
103.0251225385622
100
AcDbArc
 50
21.99889407604638
 51
87.85359693725697
  0
ARC
  5
F2
100
AcDbEntity
  8
outlines
  6
ByLayer
 62
  256
370
   -1
100
AcDbCircle
 10
413.6414217486111
 20
225.8363995873365
 40
133.242374239833
100
AcDbArc
 50
86.71755068327376
 51
139.6796303440226
  0
ARC
  5
F3
100
AcDbEntity
  8
outlines
  6
ByLayer
 62
  256
370
   -1
100
AcDbCircle
 10
421.8253040568387
 20
157.3978003778007
 40
201.4631399003271
100
AcDbArc
 50
46.79705469841179
 51
90.15774508577407
  0
ARC
  5
F4
100
AcDbEntity
  8
outlines
  6
ByLayer
 62
  256
370
   -1
100
AcDbCircle
 10
388.6193676659547
 20
237.1460880510002
 40
90.57255833224951
100
AcDbArc
 50
87.85096897990361
 51
167.0501874835699
  0
ARC
  5
F5
100
AcDbEntity
  8
outlines
  6
ByLayer
 62
  256
370
   -1
100
AcDbCircle
 10
440.2778142589446
 20
194.398209705199
 40
141.7026836136784
100
AcDbArc
 50
41.69202183330427
 51
107.4153454313106
  0
ARC
  5
F6
100
AcDbEntity
  8
outlines
  6
ByLayer
 62
  256
370
   -1
100
AcDbCircle
 10
291.9683417667138
 20
91.74206948672287
 40
321.4820694726799
100
AcDbArc
 50
16.1902951669715
 51
37.77016626947416
  0
ARC
  5
F7
100
AcDbEntity
  8
outlines
  6
ByLayer
 62
  256
370
   -1
100
AcDbCircle
 10
919.9692683011906
 20
396.5014887547845
 40
944.8680991847253
100
AcDbArc
 50
346.1100433108324
 51
1.502146754865577
  0
ARC
  5
F8
100
AcDbEntity
  8
outlines
  6
ByLayer
 62
  256
370
   -1
100
AcDbCircle
 10
1325.86778737569
 20
166.5756601015543
 40
595.8253350940595
100
AcDbArc
 50
25.30684366730089
 51
36.93809672628314
  0
CIRCLE
  5
F9
100
AcDbEntity
  8
outlines
  6
ByLayer
 62
  256
370
   -1
100
AcDbCircle
 10
1468.59626676022
 20
163.8274719891878
 40
118.7299134362977
  0
CIRCLE
  5
FA
100
AcDbEntity
  8
outlines
  6
ByLayer
 62
  256
370
   -1
100
AcDbCircle
 10
442.7242397803052
 20
156.0261637992265
 40
111.5955253976264
  0
ARC
  5
FB
100
AcDbEntity
  8
outlines
  6
ByLayer
 62
  256
370
   -1
100
AcDbCircle
 10
631.2741199771689
 20
192.1690089831521
 40
32.42107165872078
100
AcDbArc
 50
199.4366777866699
 51
212.0522835668542
  0
ARC
  5
FC
100
AcDbEntity
  8
outlines
  6
ByLayer
 62
  256
370
   -1
100
AcDbCircle
 10
659.011504416226
 20
-31.63961300789856
 40
460.6589500806596
100
AcDbArc
 50
141.1310012019374
 51
149.6844214230428
  0
ARC
  5
FD
100
AcDbEntity
  8
outlines
  6
ByLayer
 62
  256
370
   -1
100
AcDbCircle
 10
1525.619047986456
 20
-23.63783760211183
 40
325.8166747728707
100
AcDbArc
 50
127.733556641393
 51
145.4287003751526
  0
ARC
  5
FE
100
AcDbEntity
  8
outlines
  6
ByLayer
 62
  256
370
   -1
100
AcDbCircle
 10
1987.103249072058
 20
45.06729892363731
 40
687.3673715884897
100
AcDbArc
 50
164.0426744516961
 51
174.9955307577013
  0
ARC
  5
FF
100
AcDbEntity
  8
outlines
  6
ByLayer
 62
  256
370
   -1
100
AcDbCircle
 10
1060.814974648031
 20
-13.88192693176296
 40
263.2261705202031
100
AcDbArc
 50
29.15739632992338
 51
41.70485319863971
  0
ARC
  5
100
100
AcDbEntity
  8
outlines
  6
ByLayer
 62
  256
370
   -1
100
AcDbCircle
 10
1378.453232226509
 20
212.1116291616917
 40
131.3678335848361
100
AcDbArc
 50
202.7828684043502
 51
234.6010023676084
  0
ARC
  5
101
100
AcDbEntity
  8
outlines
  6
ByLayer
 62
  256
370
   -1
100
AcDbCircle
 10
495.9696459948856
 20
168.8383201556506
 40
214.7503723811872
100
AcDbArc
 50
155.6320701460575
 51
185.6227009315447
  0
ARC
  5
102
100
AcDbEntity
  8
outlines
  6
ByLayer
 62
  256
370
   -1
100
AcDbCircle
 10
390.7739678420737
 20
215.7843963475976
 40
130.2850460065455
100
AcDbArc
 50
186.5672932717332
 51
213.5966027424966
  0
ARC
  5
103
100
AcDbEntity
  8
outlines
  6
ByLayer
 62
  256
370
   -1
100
AcDbCircle
 10
1730.085303108434
 20
544.1412462498024
 40
16.65939759676392
100
AcDbArc
 50
324.1720390747164
 51
35.82796092528393
  0
ARC
  5
104
100
AcDbEntity
  8
outlines
  6
ByLayer
 62
  256
370
   -1
100
AcDbCircle
 10
1344.526578802042
 20
-300.9008404877324
 40
810.739278552795
100
AcDbArc
 50
88.96194324980978
 51
93.73383131058742
  0
ARC
  5
105
100
AcDbEntity
  8
outlines
  6
ByLayer
 62
  256
370
   -1
100
AcDbCircle
 10
1273.204875625742
 20
472.7213072306137
 40
93.62399026359431
100
AcDbArc
 50
12.03254362980394
 51
23.26770481005672
  0
ARC
  5
106
100
AcDbEntity
  8
outlines
  6
ByLayer
 62
  256
370
   -1
100
AcDbCircle
 10
1315.49959122941
 20
999.552740505577
 40
509.7010405049352
100
AcDbArc
 50
266.7908894449144
 51
275.5473892109005
  0
ARC
  5
107
100
AcDbEntity
  8
outlines
  6
ByLayer
 62
  256
370
   -1
100
AcDbCircle
 10
1297.999072924863
 20
497.0249134745204
 40
12.74155216406138
100
AcDbArc
 50
119.4733393512591
 51
210.0164232426241
  0
ARC
  5
108
100
AcDbEntity
  8
outlines
  6
ByLayer
 62
  256
370
   -1
100
AcDbCircle
 10
1504.430594816315
 20
201.9274454274475
 40
122.1605421595215
100
AcDbArc
 50
359.3175798325626
 51
85.76408073432762
  0
ARC
  5
109
100
AcDbEntity
  8
outlines
  6
ByLayer
 62
  256
370
   -1
100
AcDbCircle
 10
1658.901329001685
 20
196.2964471462122
 40
32.58754100745029
100
AcDbArc
 50
172.6373899070618
 51
274.8890379739415
  0
LINE
  5
10A
100
AcDbEntity
  8
outlines
  6
ByLayer
 62
  256
370
   -1
100
AcDbLine
 10
1468.59626676022
 20
282.5573854254856
 11
1468.59626676022
 21
45.09755855289013
  0
LINE
  5
10B
100
AcDbEntity
  8
outlines
  6
ByLayer
 62
  256
370
   -1
100
AcDbLine
 10
442.7242397803052
 20
267.6216891968529
 11
442.7242397803052
 21
44.43063840160011
  0
LINE
  5
10C
100
AcDbEntity
  8
outlines
  6
ByLayer
 62
  256
370
   -1
100
AcDbLine
 10
1349.866353323922
 20
163.8274719891879
 11
1587.326180196517
 21
163.8274719891878
  0
LINE
  5
10D
100
AcDbEntity
  8
outlines
  6
ByLayer
 62
  256
370
   -1
100
AcDbLine
 10
331.1287143826788
 20
156.0261637992265
 11
554.3197651779316
 21
156.0261637992265
  0
DIMENSION
  5
10E
100
AcDbEntity
  8
Dimensions
  6
ByLayer
 62
  256
370
   -1
100
AcDbDimension
  2
*D1
 10
1881
 20
-300
 30
0
 11
965.5
 21
-240
 31
0
 70
   33
 71
    5
  3
Standard
 53
0
210
0
220
0
230
1
100
AcDbAlignedDimension
 13
50.00000000000005
 23
40
 33
0
 14
1881
 24
40
 34
0
  0
DIMENSION
  5
10F
100
AcDbEntity
  8
Dimensions
  6
ByLayer
 62
  256
370
   -1
100
AcDbDimension
  2
*D2
 10
2200
 20
40.00000000000004
 30
0
 11
2140
 21
423.4999999999999
 31
0
 70
   33
 71
    5
  3
Standard
 53
0
210
0
220
0
230
1
100
AcDbAlignedDimension
 13
1881
 23
807
 33
0
 14
1881
 24
40
 34
0
  0
ARC
  5
110
100
AcDbEntity
  8
outlines
  6
ByLayer
 62
  256
370
   -1
100
AcDbCircle
 10
1744.258736123003
 20
2473.930362516081
 40
2189.032438892161
100
AcDbArc
 50
266.9680684477298
 51
272.5463770047365
  0
ARC
  5
111
100
AcDbEntity
  8
outlines
  6
ByLayer
 62
  256
370
   -1
100
AcDbCircle
 10
-117.8089861108576
 20
-67745.45098102288
 40
68052.83797725056
100
AcDbArc
 50
88.77800799046874
 51
89.41596987591026
  0
ARC
  5
112
100
AcDbEntity
  8
outlines
  6
ByLayer
 62
  256
370
   -1
100
AcDbCircle
 10
148.9030751722273
 20
4292.240518465248
 40
3986.506483385689
100
AcDbArc
 50
269.0741013530146
 51
272.4140170527629
  0
LWPOLYLINE
  5
113
100
AcDbEntity
  8
Border
  6
ByLayer
 62
  256
370
   -1
100
AcDbPolyline
 90
    5
 70
    1
 43
0
 10
50.00000000000005
 20
807
 10
1881
 20
807
 10
1881
 20
40
 10
50.00000000000005
 20
40
 10
50.00000000000005
 20
40
  0
DIMENSION
  5
114
100
AcDbEntity
  8
Dimensions
  6
ByLayer
 62
  256
370
   -1
100
AcDbDimension
  2
*D3
 10
-162.477960473646
 20
524.1885789355757
 30
0
 11
-222.477960473646
 21
665.5942894677878
 31
0
 70
   32
 71
    5
  3
Standard
 53
0
210
0
220
0
230
1
100
AcDbAlignedDimension
 13
50.00000000000005
 23
807
 33
0
 14
306.4892163079518
 24
524.1885789355757
 34
0
 50
90
100
AcDbRotatedDimension
  0
DIMENSION
  5
115
100
AcDbEntity
  8
Dimensions
  6
ByLayer
 62
  256
370
   -1
100
AcDbDimension
  2
*D4
 10
306.4892163079518
 20
-100
 30
0
 11
178.2446081539759
 21
-40
 31
0
 70
   32
 71
    5
  3
Standard
 53
0
210
0
220
0
230
1
100
AcDbAlignedDimension
 13
50.00000000000005
 23
40
 33
0
 14
306.4892163079518
 24
524.1885789355757
 34
0
100
AcDbRotatedDimension
  0
DIMENSION
  5
116
100
AcDbEntity
  8
Dimensions
  6
ByLayer
 62
  256
370
   -1
100
AcDbDimension
  2
*D5
 10
2000
 20
396.1885789355757
 30
0
 11
1940
 21
460.1885789355757
 31
0
 70
   33
 71
    5
  3
Standard
 53
0
210
0
220
0
230
1
100
AcDbAlignedDimension
 13
1411.061618859254
 23
524.1885789355757
 33
0
 14
1411.061618859254
 24
396.1885789355757
 34
0
  0
DIMENSION
  5
117
100
AcDbEntity
  8
Dimensions
  6
ByLayer
 62
  256
370
   -1
100
AcDbDimension
  2
*D6
 10
561.316303038745
 20
899.8775832374644
 30
0
 11
433.1264305717525
 21
959.4722195159586
 31
0
 70
   33
 71
    5
  3
Standard
 53
0
210
0
220
0
230
1
100
AcDbAlignedDimension
 13
306.4892163079518
 23
528.4268635857892
 33
0
 14
562.4892163079518
 24
529.2369901680677
 34
0
  0
DIMENSION
  5
118
100
AcDbEntity
  8
Dimensions
  6
ByLayer
 62
  256
370
   -1
100
AcDbDimension
  2
*D7
 10
1090.767739611142
 20
900.6674098500821
 30
0
 11
962.326532092541
 21
959.7246111569586
 31
0
 70
   33
 71
    5
  3
Standard
 53
0
210
0
220
0
230
1
100
AcDbAlignedDimension
 13
837.522039526354
 23
524.1885789355757
 33
0
 14
1093.522125473947
 24
526.0709325087198
 34
0
  0
DIMENSION
  5
119
100
AcDbEntity
  8
Dimensions
  6
ByLayer
 62
  256
370
   -1
100
AcDbDimension
  2
*D8
 10
1667.061618859254
 20
900
 30
0
 11
1539.061618859254
 21
960
 31
0
 70
   33
 71
    5
  3
Standard
 53
0
210
0
220
0
230
1
100
AcDbAlignedDimension
 13
1411.061618859254
 23
524.1885789355757
 33
0
 14
1667.061618859254
 24
524.1885789355757
 34
0
  0
DIMENSION
  5
11A
100
AcDbEntity
  8
Dimensions
  6
ByLayer
 62
  256
370
   -1
100
AcDbDimension
  2
*D9
 10
837.5220395263634
 20
-100
 30
0
 11
572.0056279171577
 21
-40
 31
0
 70
   32
 71
    5
  3
Standard
 53
0
210
0
220
0
230
1
100
AcDbAlignedDimension
 13
306.4892163079518
 23
396.1885789355757
 33
0
 14
837.5220395263634
 24
524.1885789355757
 34
0
100
AcDbRotatedDimension
  0
DIMENSION
  5
11B
100
AcDbEntity
  8
Dimensions
  6
ByLayer
 62
  256
370
   -1
100
AcDbDimension
  2
*D10
 10
1411.061618859254
 20
-100
 30
0
 11
1124.291829192809
 21
-40
 31
0
 70
   32
 71
    5
  3
Standard
 53
0
210
0
220
0
230
1
100
AcDbAlignedDimension
 13
837.5220395263634
 23
396.1885789355757
 33
0
 14
1411.061618859254
 24
524.1885789355757
 34
0
100
AcDbRotatedDimension
  0
ENDSEC
  0
SECTION
  2
OBJECTS
  0
DICTIONARY
  5
C
330
0
100
AcDbDictionary
281
    1
  3
ACAD_GROUP
350
D
  3
ACAD_IMAGE_DICT
350
11C
  0
DICTIONARY
  5
D
330
C
100
AcDbDictionary
281
    1
  0
IMAGEDEF_REACTOR
  5
AC
330
AD
100
AcDbRasterImageDefReactor
 90
    2
330
AD
  0
IMAGEDEF_REACTOR
  5
AF
330
B0
100
AcDbRasterImageDefReactor
 90
    2
330
B0
  0
IMAGEDEF_REACTOR
  5
B2
330
B3
100
AcDbRasterImageDefReactor
 90
    2
330
B3
  0
IMAGEDEF_REACTOR
  5
B5
330
B6
100
AcDbRasterImageDefReactor
 90
    2
330
B6
  0
DICTIONARY
  5
11C
330
C
100
AcDbDictionary
281
    1
  3
Snippet_Ref_3
350
AB
  3
Snippet_Ref_2
350
AE
  3
Snippet_Ref_1
350
B1
  3
ref2
350
B4
  0
IMAGEDEF
  5
AB
102
{ACAD_REACTORS
330
AC
102
}
100
AcDbRasterImageDef
 90
    0
  1
E:/COSDART_PROJECTS/FYP_CNN/src/To Embed/Snippet_Ref_3.jpg
 10
256
 20
128
 11
1
 21
1
280
    1
281
    0
  0
IMAGEDEF
  5
AE
102
{ACAD_REACTORS
330
AF
102
}
100
AcDbRasterImageDef
 90
    0
  1
E:/COSDART_PROJECTS/FYP_CNN/src/To Embed/Snippet_Ref_2.jpg
 10
256
 20
128
 11
1
 21
1
280
    1
281
    0
  0
IMAGEDEF
  5
B1
102
{ACAD_REACTORS
330
B2
102
}
100
AcDbRasterImageDef
 90
    0
  1
E:/COSDART_PROJECTS/FYP_CNN/src/To Embed/Snippet_Ref_1.jpg
 10
256
 20
128
 11
1
 21
1
280
    1
281
    0
  0
IMAGEDEF
  5
B4
102
{ACAD_REACTORS
330
B5
102
}
100
AcDbRasterImageDef
 90
    0
  1
E:/COSDART_PROJECTS/FYP_CNN/src/ref2.jpeg
 10
1831
 20
767
 11
1
 21
1
280
    1
281
    0
  0
ENDSEC
  0
EOF
